<?xml version="1.0" encoding="UTF-8"?>
<svg id="Layer_2" data-name="Layer 2" xmlns="http://www.w3.org/2000/svg" viewBox="0 0 30.83 38.78">
  <defs>
    <style>
      .cls-1 {
        fill: #e75a4f;
        stroke: #e75a4f;
        stroke-miterlimit: 10;
        stroke-width: .5px;
      }
    </style>
  </defs>
  <g id="Homepage">
    <g id="Main">
      <g id="Section_1" data-name="Section 1">
        <path class="cls-1" d="m29.7,13.96c-1.91.03-3.71.43-5.33,1.23.99-3.52,0-7.09-2.89-9.84-.07-.1-.16-.17-.25-.22-.85-.61-2.01.58-1.2,1.35.56,1.1,1.26,3.75-.32,4.41-.73.3-1.54-1.02-1.83-1.48-1.35-2.17-1.51-5.1-.35-7.37.02-.01.04-.03.06-.05.88-.64.14-2.06-.74-1.68-.26.01-.52.14-.69.43-.02.04-.04.07-.06.11-3.99,3.23-5.61,8.33-3.68,13.25.04.11.1.19.16.27.36.93.81,2.65-.4,3.08-1.99.72-2.7-2.35-3.31-3.57-1.18-2.38-3.69-3.93-6.07-4.91-.93-.39-1.41.86-.84,1.5,1.39,4.1-.32,7.56-1.28,11.52C0,24.81.1,27.8,1.17,30.5c1.96,4.93,6.95,7.52,12.01,7.97,5.39.48,12.53-1.64,15.01-6.85,2.38-4.99.5-10.93,2.18-16.15.43-.52.21-1.53-.67-1.52Zm-2.65,15.47c-.68,2.75-2.73,4.6-5.24,5.74-.27.17-.56.29-.86.42-.35.15-.68.28-1.05.38-.5.13-1.01.22-1.52.28-.37.2-.77.3-1.2.3-.29,0-.56-.05-.83-.14-.02,0-.04,0-.06,0-.02,0-.04,0-.06.01-.94.16-1.84.22-2.77-.06-.4.05-.8.05-1.17-.1-.13-.03-.25-.07-.36-.12-.27,0-.54-.01-.81-.04-.43-.05-.88-.1-1.3-.2-.11-.03-.21-.06-.32-.09.05.05.1.09.15.14-3.58-1.25-6.45-4.03-7.36-7.91-.71-3.06.23-6.13,1.13-9.03.78-2.51,1.18-4.86.72-7.33,1.53.95,2.77,2.22,3.61,3.89,0,.03.01.06.02.09.71,2.04,2.46,4.25,4.89,3.56,2.41-.68,2.39-3.63,1.6-5.5-.04-.09-.09-.16-.14-.23-1.16-3.06-.81-6.21.84-8.76-.2,2.73.68,5.62,2.75,7.3,1.13.92,2.54.94,3.58-.12.6-.61.93-1.34,1.07-2.11.92,2.31.66,4.86-.85,7.34-.03.04-.04.09-.06.13-.6.81.6,1.92,1.4,1.16,1.56-1.49,3.42-2.29,5.48-2.55-1.14,4.45-.2,9.09-1.31,13.55Z"/>
      </g>
    </g>
  </g>
</svg>