<?xml version="1.0" encoding="utf-8"?>
<!-- Generator: Adobe Illustrator 27.7.0, SVG Export Plug-In . SVG Version: 6.00 Build 0)  -->
<svg version="1.1" id="Layer_2_00000109030790735913254560000017773629755707901619_"
	 xmlns="http://www.w3.org/2000/svg" xmlns:xlink="http://www.w3.org/1999/xlink" x="0px" y="0px" viewBox="0 0 30.8 38.8"
	 style="enable-background:new 0 0 30.8 38.8;" xml:space="preserve">
<style type="text/css">
	.st0{fill:#892115;stroke:#892115;stroke-width:0.5;stroke-miterlimit:10;}
	.st1{fill:#F4F400;stroke:#EDED00;stroke-width:0.5;stroke-miterlimit:10;}
</style>
<g id="Homepage">
	<g id="Main">
		<g id="Section_1">
			<path class="st0" d="M29.7,14c-1.9,0-3.7,0.4-5.3,1.2c1-3.5,0-7.1-2.9-9.8c-0.1-0.1-0.2-0.2-0.2-0.2c-0.9-0.6-2,0.6-1.2,1.3
				c0.6,1.1,1.3,3.8-0.3,4.4c-0.7,0.3-1.5-1-1.8-1.5c-1.4-2.2-1.5-5.1-0.4-7.4c0,0,0,0,0.1,0c0.9-0.6,0.1-2.1-0.7-1.7
				c-0.3,0-0.5,0.1-0.7,0.4c0,0,0,0.1-0.1,0.1c-4,3.2-5.6,8.3-3.7,13.2c0,0.1,0.1,0.2,0.2,0.3c0.4,0.9,0.8,2.6-0.4,3.1
				c-2,0.7-2.7-2.4-3.3-3.6C7.7,11.5,5.2,10,2.8,9C1.9,8.6,1.4,9.8,2,10.5C3.4,14.6,1.6,18,0.7,22c-0.7,2.8-0.6,5.8,0.5,8.5
				c2,4.9,6.9,7.5,12,8c5.4,0.5,12.5-1.6,15-6.9c2.4-5,0.5-10.9,2.2-16.1C30.8,15,30.6,13.9,29.7,14L29.7,14z M27.1,29.4
				c-0.7,2.8-2.7,4.6-5.2,5.7c-0.3,0.2-0.6,0.3-0.9,0.4c-0.4,0.2-0.7,0.3-1,0.4c-0.5,0.1-1,0.2-1.5,0.3c-0.4,0.2-0.8,0.3-1.2,0.3
				c-0.3,0-0.6,0-0.8-0.1c0,0,0,0-0.1,0c0,0,0,0-0.1,0c-0.9,0.2-1.8,0.2-2.8-0.1c-0.4,0-0.8,0-1.2-0.1c-0.1,0-0.2-0.1-0.4-0.1
				c-0.3,0-0.5,0-0.8,0c-0.4,0-0.9-0.1-1.3-0.2c-0.1,0-0.2-0.1-0.3-0.1c0.1,0,0.1,0.1,0.1,0.1c-3.6-1.2-6.4-4-7.4-7.9
				c-0.7-3.1,0.2-6.1,1.1-9c0.8-2.5,1.2-4.9,0.7-7.3c1.5,0.9,2.8,2.2,3.6,3.9c0,0,0,0.1,0,0.1c0.7,2,2.5,4.3,4.9,3.6
				c2.4-0.7,2.4-3.6,1.6-5.5c0-0.1-0.1-0.2-0.1-0.2C13,10.4,13.3,7.3,15,4.7c-0.2,2.7,0.7,5.6,2.7,7.3c1.1,0.9,2.5,0.9,3.6-0.1
				c0.6-0.6,0.9-1.3,1.1-2.1c0.9,2.3,0.7,4.9-0.9,7.3c0,0,0,0.1-0.1,0.1c-0.6,0.8,0.6,1.9,1.4,1.2c1.6-1.5,3.4-2.3,5.5-2.6
				C27.2,20.3,28.1,25,27.1,29.4L27.1,29.4z"/>
		</g>
	</g>
</g>
<g id="Homepage_00000124133426706808912110000012131298003150080444_">
	<g id="Main_00000026875184383104188090000017417909961014400159_">
		<g id="Section_1_00000054238247798535318290000007435510070232004533_">
			<path class="st1" d="M12.5,29.3c0.2,0.6,0.5,1.8-0.3,2c-0.1,0-0.1,0-0.2,0c0,0.1,0,0.1,0,0.2c0,0.3,0,0.5,0,0.6
				c0-0.1,0,0,0.1,0.3c0.1,0,0.2,0,0.4-0.1c1.6-0.5,1.6-2.4,1.1-3.6c0-0.1-0.1-0.1-0.1-0.2c-0.8-2-0.5-4.1,0.6-5.8
				c-0.1,1.8,0.5,3.7,1.8,4.8c0.5,0.4,1.2,0.6,1.8,0.3c0.1-0.1,0.3-0.2,0.4-0.2c0.1-0.1,0.2-0.1,0.2-0.2c0.4-0.4,0.6-0.9,0.7-1.4
				c0.1,0.4,0.2,0.7,0.3,1.1c0.4-0.1,0.8-0.2,1.2-0.3c-0.2-1.4-0.9-2.7-2.1-3.8c0-0.1-0.1-0.1-0.2-0.1c-0.6-0.4-1.3,0.4-0.8,0.9
				c0.4,0.7,0.8,2.5-0.2,2.9c-0.5,0.2-1-0.7-1.2-1c-0.9-1.4-1-3.4-0.2-4.9c0,0,0,0,0,0c0.6-0.4,0.1-1.4-0.5-1.1
				c-0.2,0-0.3,0.1-0.5,0.3c0,0,0,0,0,0.1c-2.6,2.1-3.7,5.5-2.4,8.8C12.4,29.2,12.4,29.3,12.5,29.3z"/>
		</g>
	</g>
</g>
</svg>
