<?xml version="1.0" encoding="UTF-8"?>
<svg id="Layer_2" data-name="Layer 2" xmlns="http://www.w3.org/2000/svg" viewBox="0 0 30.54 30.54">
  <defs>
    <style>
      .cls-1 {
        fill: #e75a4f;
      }
    </style>
  </defs>
  <g id="Homepage">
    <g id="Main">
      <g id="Section_2" data-name="Section 2">
        <path class="cls-1" d="m15.27,0C6.85,0,0,6.85,0,15.27s6.85,15.27,15.27,15.27,15.27-6.85,15.27-15.27S23.69,0,15.27,0Zm0,29.92c-6.42,0-11.88-4.16-13.85-9.93l7.32-5.58,5.55,5.55.1-.1h0s.17-.17.17-.17l.16-.16h0s8.28-8.8,8.28-8.8l.4,2.32.61-.11-.49-2.82-.07-.47-3.66.53.09.61,2.55-.37-8.16,8.66-5.36-5.36-.03.03-.11-.15-7.56,5.76c-.38-1.3-.59-2.67-.59-4.1C.62,7.19,7.19.62,15.27.62s14.65,6.57,14.65,14.65-6.57,14.65-14.65,14.65Z"/>
      </g>
    </g>
  </g>
</svg>