<?xml version="1.0" encoding="utf-8"?>
<!-- Generator: Adobe Illustrator 27.7.0, SVG Export Plug-In . SVG Version: 6.00 Build 0)  -->
<svg version="1.1" id="Layer_2_00000121996809695915662770000006132605908216209078_"
	 xmlns="http://www.w3.org/2000/svg" xmlns:xlink="http://www.w3.org/1999/xlink" x="0px" y="0px" viewBox="0 0 30.5 30.5"
	 style="enable-background:new 0 0 30.5 30.5;" xml:space="preserve">
<style type="text/css">
	.st0{fill:#892115;stroke:#892115;stroke-miterlimit:10;}
</style>
<g id="Homepage">
	<g id="Main">
		<g id="Section_2">
			<path class="st0" d="M15.3,0.8c-8,0-14.4,6.5-14.4,14.4s6.5,14.4,14.4,14.4s14.4-6.5,14.4-14.4S23.2,0.8,15.3,0.8z M15.3,29.1
				c-6.1,0-11.2-3.9-13.1-9.4l6.9-5.3l5.2,5.2l0.1-0.1l0,0l0.2-0.2l0.2-0.2l0,0l7.8-8.3l0.4,2.2l0.6-0.1l-0.5-2.7L23,10l-3.5,0.5
				l0.1,0.6l2.4-0.3l-7.7,8.2l-5.1-5.1l0,0l-0.1-0.1L2,19.1c-0.4-1.2-0.6-2.5-0.6-3.9c0-7.6,6.2-13.8,13.9-13.8s13.9,6.2,13.9,13.9
				S22.9,29.1,15.3,29.1z"/>
		</g>
	</g>
</g>
</svg>
