<?xml version="1.0" encoding="UTF-8"?>
<svg id="Layer_2" data-name="Layer 2" xmlns="http://www.w3.org/2000/svg" viewBox="0 0 163.61 69.93">
  <defs>
    <style>
      .cls-1 {
        letter-spacing: -.09em;
      }

      .cls-2 {
        fill: none;
        stroke: #595959;
        stroke-miterlimit: 10;
      }

      .cls-3 {
        font-size: 12.35px;
      }

      .cls-3, .cls-4, .cls-5 {
        fill: #595959;
        font-family: AbeatbyKai, abeatbyKai;
      }

      .cls-6 {
        letter-spacing: -.08em;
      }

      .cls-4 {
        font-size: 13.43px;
      }

      .cls-5 {
        font-size: 13.9px;
      }
    </style>
  </defs>
  <g id="Homepage">
    <g id="Footer">
      <g>
        <g>
          <rect x="4.28" y="11.74" width="25.09" height="3.04" rx="1.52" ry="1.52"/>
          <rect x="7.03" y="32.17" width="19.39" height="3.04" rx="1.52" ry="1.52"/>
          <rect x="12.16" y="6.7" width="9.12" height="3.04" rx="1.52" ry="1.52"/>
          <rect x="1.9" y="17.15" width="30.03" height="3.04" rx="1.52" ry="1.52"/>
          <rect x="2.85" y="27.04" width="28.13" height="3.04" rx="1.52" ry="1.52"/>
          <path d="m0,23.62c0-.84.68-1.52,1.52-1.52h31.36c.84,0,1.52.68,1.52,1.52h0c0,.84-.68,1.52-1.52,1.52H1.52c-.84,0-1.52-.68-1.52-1.52"/>
          <path d="m8.84,36.64h16.16c0,2.33-1.89,4.21-4.21,4.21h-7.73c-2.33,0-4.21-1.89-4.21-4.21h0Z"/>
          <rect x="14.83" y="39.77" width="4.18" height="2.47"/>
        </g>
        <g>
          <polygon points="154.25 42.17 163.61 42.17 163.61 37.82 158.12 37.82 154.25 42.17"/>
          <polygon points="149.3 12.11 140.44 12.11 140.44 16.52 146.28 16.52 149.3 12.11"/>
          <path d="m151.13,16.52h5.58v.12c-1.37,1.61-2.61,3.04-3.91,4.66l-4.37,5.69,6.23-.23,8.63-11.23.06-3.42h-9.2l-3.03,4.41Z"/>
          <path d="m152.76,37.82h-6.73v-.12c1.37-1.55,2.61-3.04,3.85-4.72l1.61-2.1-6.23.23-6.06,7.89v3.17h9.7l3.87-4.35Z"/>
        </g>
        <g>
          <polygon points="124.25 42.17 133.61 42.17 133.61 37.82 128.12 37.82 124.25 42.17"/>
          <polygon points="119.3 12.11 110.44 12.11 110.44 16.52 116.28 16.52 119.3 12.11"/>
          <path d="m121.13,16.52h5.58v.12c-1.37,1.61-2.61,3.04-3.91,4.66l-4.37,5.69,6.23-.23,8.63-11.23.06-3.42h-9.2l-3.03,4.41Z"/>
          <path d="m122.76,37.82h-6.73v-.12c1.37-1.55,2.61-3.04,3.85-4.72l1.61-2.1-6.23.23-6.06,7.89v3.17h9.7l3.87-4.35Z"/>
        </g>
        <path d="m50.92.2c-1.94.16-3.68.39-4.99.67v41.17c1.21.17,2.9.33,4.99.42V.2Z"/>
        <path d="m62.69,19.75v-.12c4.41-1.61,7.08-5.15,7.08-9.19,0-3.29-1.3-5.78-3.48-7.39-2.61-2.11-6.09-3.04-11.49-3.04-.63,0-1.26.01-1.88.03v4.19c.62-.04,1.34-.06,2.19-.06,5.46,0,9.19,1.93,9.19,6.83,0,4.04-3.35,7.02-9.07,7.02h-2.31v4.1h1.88c5.9,0,10.81,2.36,10.81,8.07,0,6.09-5.15,8.14-10.74,8.14-.71,0-1.34-.01-1.94-.03v4.25c.13,0,.26,0,.39,0,6.83,0,11.55-1.24,14.47-3.91,2.11-2.05,3.54-4.78,3.54-8.38,0-6.21-4.66-9.5-8.63-10.5Z"/>
        <g>
          <path d="m102.55,33.97V12.11h-5.47v18.44c0,.28-.02.55-.05.83l.46,5.92s.02-.03.02-.04h.12l.31,4.91h4.84c-.19-2.36-.25-5.09-.25-8.2Z"/>
          <path d="m95.92,34.62c-1.26,1.97-3.52,3.7-6.54,3.7-4.97,0-6.71-3.85-6.71-9.56V12.11h-5.47v17.58c0,10.56,5.65,13.17,10.37,13.17,3.86,0,6.59-1.66,8.34-3.49v-4.74Z"/>
        </g>
      </g>
      <circle class="cls-2" cx="79.07" cy="61.91" r="5.79"/>
      <g>
        <text class="cls-4" transform="translate(75.08 66.12)"><tspan x="0" y="0">c</tspan></text>
        <text class="cls-5" transform="translate(90.32 66.86)"><tspan class="cls-1" x="0" y="0">e</tspan><tspan class="cls-6" x="7.87" y="0">v</tspan><tspan x="15.26" y="0">an anil</tspan></text>
        <text class="cls-5" transform="translate(65.23 66.21)"><tspan x="0" y="0">|</tspan></text>
        <text class="cls-3" transform="translate(28.6 67.41)"><tspan x="0" y="0">2023</tspan></text>
      </g>
    </g>
  </g>
</svg>