<?xml version="1.0" encoding="utf-8"?>
<!-- Generator: Adobe Illustrator 27.7.0, SVG Export Plug-In . SVG Version: 6.00 Build 0)  -->
<svg version="1.1" id="Layer_1" xmlns="http://www.w3.org/2000/svg" xmlns:xlink="http://www.w3.org/1999/xlink" x="0px" y="0px"
	 viewBox="0 0 25.4 25.3" style="enable-background:new 0 0 25.4 25.3;" xml:space="preserve">
<style type="text/css">
	.st0{fill:#D8AF55;}
	.st1{fill:#E87F74;}
</style>
<path class="st0" d="M23.6,20.3L4.8,1.6c-1-0.9-2.6-0.9-3.5,0c-0.9,1-0.9,2.6,0,3.5l18.8,18.6c1,0.9,2.6,0.9,3.5,0
	C24.5,22.8,24.5,21.2,23.6,20.3z"/>
<path class="st1" d="M23.6,1.7c-0.9-1-2.5-1-3.5,0L1.3,20.2c-1,0.9-1,2.5,0,3.5c0.9,1,2.5,1,3.5,0L23.6,5.2
	C24.5,4.2,24.6,2.6,23.6,1.7z M10.4,13.1c-0.2,0-0.4-0.2-0.4-0.4s0.2-0.4,0.4-0.4c0.2,0,0.4,0.2,0.4,0.4
	C10.8,13,10.7,13.1,10.4,13.1z M12.4,10.3c0.2,0,0.4,0.2,0.4,0.4c0,0.2-0.2,0.4-0.4,0.4c-0.2,0-0.4-0.2-0.4-0.4
	C12,10.5,12.2,10.3,12.4,10.3z M12.2,14.9c-0.2,0-0.4-0.2-0.4-0.4c0-0.2,0.2-0.4,0.4-0.4c0.2,0,0.4,0.2,0.4,0.4
	C12.6,14.8,12.4,15,12.2,14.9z M14.3,13c-0.2,0-0.4-0.2-0.4-0.4c0-0.2,0.2-0.4,0.4-0.4c0.2,0,0.4,0.2,0.4,0.4
	C14.7,12.8,14.5,13,14.3,13z"/>
</svg>
