<?xml version="1.0" encoding="utf-8"?>
<!-- Generator: Adobe Illustrator 27.7.0, SVG Export Plug-In . SVG Version: 6.00 Build 0)  -->
<svg version="1.1" id="Layer_1" xmlns="http://www.w3.org/2000/svg" xmlns:xlink="http://www.w3.org/1999/xlink" x="0px" y="0px"
	 viewBox="0 0 25.4 25.3" style="enable-background:new 0 0 25.4 25.3;" xml:space="preserve">
<style type="text/css">
	.st0{fill:#D8AF55;}
	.st1{fill:#E87F74;}
</style>
<g>
	<path class="st0" d="M20.6,23.6L1.6,5.3c-1-0.9-1-2.5-0.1-3.5l0,0c0.9-1,2.5-1,3.5-0.1L24.1,20c1,0.9,1,2.5,0.1,3.5l0,0
		C23.2,24.5,21.6,24.5,20.6,23.6z"/>
	<path class="st1" d="M23.6,4.4L6,24.2c-0.9,1-2.5,1.1-3.5,0.2l0,0c-1-0.9-1.1-2.5-0.2-3.5L19.9,1.1c0.9-1,2.5-1.1,3.5-0.2l0,0
		C24.4,1.8,24.5,3.4,23.6,4.4z"/>
</g>
<circle class="st0" cx="12.8" cy="10.7" r="0.4"/>
<circle class="st0" cx="14.8" cy="12.4" r="0.4"/>
<circle class="st0" cx="11" cy="12.8" r="0.4"/>
<circle class="st0" cx="12.9" cy="14.5" r="0.4"/>
</svg>
