<?xml version="1.0" encoding="utf-8"?>
<!-- Generator: Adobe Illustrator 27.7.0, SVG Export Plug-In . SVG Version: 6.00 Build 0)  -->
<svg version="1.1" id="Layer_1" xmlns="http://www.w3.org/2000/svg" xmlns:xlink="http://www.w3.org/1999/xlink" x="0px" y="0px"
	 viewBox="0 0 31.9 21.9" style="enable-background:new 0 0 31.9 21.9;" xml:space="preserve">
<style type="text/css">
	.st0{fill:#D8AF55;}
	.st1{fill:#E87F74;}
</style>
<g>
	<path class="st0" d="M29.2,5.2H2.8c-1.4,0-2.5-1.1-2.5-2.5v0c0-1.4,1.1-2.5,2.5-2.5h26.4c1.4,0,2.5,1.1,2.5,2.5v0
		C31.7,4.1,30.6,5.2,29.2,5.2z"/>
	<path class="st1" d="M29.2,13.4H2.8c-1.4,0-2.5-1.1-2.5-2.5v0c0-1.4,1.1-2.5,2.5-2.5h26.4c1.4,0,2.5,1.1,2.5,2.5v0
		C31.7,12.3,30.6,13.4,29.2,13.4z"/>
	<path class="st0" d="M29.2,21.7H2.8c-1.4,0-2.5-1.1-2.5-2.5v0c0-1.4,1.1-2.5,2.5-2.5h26.4c1.4,0,2.5,1.1,2.5,2.5v0
		C31.7,20.6,30.6,21.7,29.2,21.7z"/>
</g>
</svg>
