<?xml version="1.0" encoding="UTF-8"?>
<svg id="Layer_2" data-name="Layer 2" xmlns="http://www.w3.org/2000/svg" viewBox="0 0 34.4 35.54">
  <defs>
    <style>
      .cls-1 {
        fill: #8c8d89;
      }

      .cls-2 {
        fill: #e88074;
      }
    </style>
  </defs>
  <g id="Homepage">
    <g id="Logo">
      <g>
        <rect class="cls-2" x="4.28" y="5.04" width="25.09" height="3.04" rx="1.52" ry="1.52"/>
        <rect class="cls-2" x="7.03" y="25.47" width="19.39" height="3.04" rx="1.52" ry="1.52"/>
        <rect class="cls-2" x="12.16" y="0" width="9.12" height="3.04" rx="1.52" ry="1.52"/>
        <rect class="cls-2" x="1.9" y="10.45" width="30.03" height="3.04" rx="1.52" ry="1.52"/>
        <rect class="cls-2" x="2.85" y="20.34" width="28.13" height="3.04" rx="1.52" ry="1.52"/>
        <path class="cls-2" d="m0,16.92c0-.84.68-1.52,1.52-1.52h31.36c.84,0,1.52.68,1.52,1.52h0c0,.84-.68,1.52-1.52,1.52H1.52c-.84,0-1.52-.68-1.52-1.52"/>
        <path class="cls-1" d="m8.84,29.94h16.16c0,2.33-1.89,4.21-4.21,4.21h-7.73c-2.33,0-4.21-1.89-4.21-4.21h0Z"/>
        <rect class="cls-1" x="14.83" y="33.07" width="4.18" height="2.47"/>
      </g>
    </g>
  </g>
</svg>