<?xml version="1.0" encoding="utf-8"?>
<!-- Generator: Adobe Illustrator 27.7.0, SVG Export Plug-In . SVG Version: 6.00 Build 0)  -->
<svg version="1.1" id="Layer_1" xmlns="http://www.w3.org/2000/svg" xmlns:xlink="http://www.w3.org/1999/xlink" x="0px" y="0px"
	 viewBox="0 0 170.5 49.4" style="enable-background:new 0 0 170.5 49.4;" xml:space="preserve">
<style type="text/css">
	.st0{fill:#E87F74;}
	.st1{fill:#8C8D89;}
	.st2{fill:#D8AF55;}
</style>
<g>
	<g>
		<path class="st0" d="M31,18.4H9c-0.8,0-1.5-0.7-1.5-1.5v0c0-0.8,0.7-1.5,1.5-1.5h22c0.8,0,1.5,0.7,1.5,1.5v0
			C32.5,17.7,31.8,18.4,31,18.4z"/>
		<path class="st0" d="M28.1,38.8H11.7c-0.8,0-1.5-0.7-1.5-1.5v0c0-0.8,0.7-1.5,1.5-1.5h16.3c0.8,0,1.5,0.7,1.5,1.5v0
			C29.6,38.1,28.9,38.8,28.1,38.8z"/>
		<path class="st0" d="M22.9,13.3h-6.1c-0.8,0-1.5-0.7-1.5-1.5v0c0-0.8,0.7-1.5,1.5-1.5h6.1c0.8,0,1.5,0.7,1.5,1.5v0
			C24.4,12.6,23.8,13.3,22.9,13.3z"/>
		<path class="st0" d="M33.6,23.8h-27c-0.8,0-1.5-0.7-1.5-1.5v0c0-0.8,0.7-1.5,1.5-1.5h27c0.8,0,1.5,0.7,1.5,1.5v0
			C35.1,23.1,34.4,23.8,33.6,23.8z"/>
		<path class="st0" d="M32.6,33.7H7.5C6.7,33.7,6,33,6,32.1v0c0-0.8,0.7-1.5,1.5-1.5h25.1c0.8,0,1.5,0.7,1.5,1.5v0
			C34.1,33,33.5,33.7,32.6,33.7z"/>
		<path class="st0" d="M3.2,27.2c0-0.8,0.7-1.5,1.5-1.5H36c0.8,0,1.5,0.7,1.5,1.5v0c0,0.8-0.7,1.5-1.5,1.5H4.7
			C3.8,28.7,3.2,28,3.2,27.2"/>
		<path class="st1" d="M23.9,44.4h-7.7c-2.3,0-4.2-1.9-4.2-4.2v0h16.2v0C28.1,42.5,26.3,44.4,23.9,44.4z"/>
		<rect x="18" y="43.3" class="st1" width="4.2" height="2.5"/>
	</g>
	<g>
		<polygon class="st0" points="157.4,45.7 166.8,45.7 166.8,41.4 161.3,41.4 		"/>
		<polygon class="st2" points="152.5,15.7 143.6,15.7 143.6,20.1 149.4,20.1 		"/>
		<path class="st2" d="M154.3,20.1h5.6v0.1c-1.4,1.6-2.6,3-3.9,4.7l-4.4,5.7l6.2-0.2l8.6-11.2l0.1-3.4h-9.2L154.3,20.1z"/>
		<path class="st0" d="M155.9,41.4h-6.7v-0.1c1.4-1.6,2.6-3,3.9-4.7l1.6-2.1l-6.2,0.2l-6.1,7.9v3.2h9.7L155.9,41.4z"/>
	</g>
	<g>
		<polygon class="st2" points="127.4,45.7 136.8,45.7 136.8,41.4 131.3,41.4 		"/>
		<polygon class="st0" points="122.5,15.7 113.6,15.7 113.6,20.1 119.4,20.1 		"/>
		<path class="st0" d="M124.3,20.1h5.6v0.1c-1.4,1.6-2.6,3-3.9,4.7l-4.4,5.7l6.2-0.2l8.6-11.2l0.1-3.4h-9.2L124.3,20.1z"/>
		<path class="st2" d="M125.9,41.4h-6.7v-0.1c1.4-1.6,2.6-3,3.9-4.7l1.6-2.1l-6.2,0.2l-6.1,7.9v3.2h9.7L125.9,41.4z"/>
	</g>
	<path class="st2" d="M54.1,3.8c-1.9,0.2-3.7,0.4-5,0.7v41.2c1.2,0.2,2.9,0.3,5,0.4V3.8z"/>
	<path class="st2" d="M65.8,23.3v-0.1c4.4-1.6,7.1-5.2,7.1-9.2c0-3.3-1.3-5.8-3.5-7.4c-2.6-2.1-6.1-3-11.5-3c-0.6,0-1.3,0-1.9,0v4.2
		c0.6,0,1.3-0.1,2.2-0.1c5.5,0,9.2,1.9,9.2,6.8c0,4-3.4,7-9.1,7h-2.3v4.1H58c5.9,0,10.8,2.4,10.8,8.1c0,6.1-5.2,8.1-10.7,8.1
		c-0.7,0-1.3,0-1.9,0v4.3c0.1,0,0.3,0,0.4,0c6.8,0,11.6-1.2,14.5-3.9c2.1-2,3.5-4.8,3.5-8.4C74.5,27.6,69.8,24.3,65.8,23.3z"/>
	<g>
		<path class="st2" d="M105.7,37.5V15.7h-5.5v18.4c0,0.3,0,0.6,0,0.8l0.5,5.9c0,0,0,0,0,0h0.1l0.3,4.9h4.8
			C105.8,43.4,105.7,40.7,105.7,37.5z"/>
		<path class="st2" d="M99.1,38.2c-1.3,2-3.5,3.7-6.5,3.7c-5,0-6.7-3.9-6.7-9.6V15.7h-5.5v17.6c0,10.6,5.7,13.2,10.4,13.2
			c3.9,0,6.6-1.7,8.3-3.5V38.2z"/>
	</g>
</g>
</svg>
