<?xml version="1.0" encoding="utf-8"?>
<!-- Generator: Adobe Illustrator 27.7.0, SVG Export Plug-In . SVG Version: 6.00 Build 0)  -->
<svg version="1.1" id="Layer_2_00000102544407360240437560000005914858290017282988_"
	 xmlns="http://www.w3.org/2000/svg" xmlns:xlink="http://www.w3.org/1999/xlink" x="0px" y="0px" viewBox="0 0 27.1 28"
	 style="enable-background:new 0 0 27.1 28;" xml:space="preserve">
<style type="text/css">
	.st0{fill:#FF911A;}
	.st1{fill:#8C8D89;}
</style>
<g>
	<path class="st0" d="M4.4,4h17.8c0.5,0,1,0.4,1,1v0.4c0,0.5-0.4,1-1,1H4.4c-0.5,0-1-0.4-1-1V5C3.4,4.4,3.8,4,4.4,4z"/>
	<path class="st0" d="M6.5,20.1h13.3c0.5,0,1,0.4,1,1v0.4c0,0.5-0.4,1-1,1H6.5c-0.5,0-1-0.4-1-1v-0.4C5.5,20.5,6,20.1,6.5,20.1z"/>
	<path class="st0" d="M10.6,0h5.2c0.5,0,1,0.4,1,1v0.4c0,0.5-0.4,1-1,1h-5.2c-0.5,0-1-0.4-1-1V1C9.6,0.4,10,0,10.6,0z"/>
	<path class="st0" d="M2.5,8.2h21.7c0.5,0,1,0.4,1,1v0.4c0,0.5-0.4,1-1,1H2.5c-0.5,0-1-0.4-1-1V9.2C1.5,8.7,1.9,8.2,2.5,8.2z"/>
	<path class="st0" d="M3.2,16h20.2c0.5,0,1,0.4,1,1v0.4c0,0.5-0.4,1-1,1H3.2c-0.5,0-1-0.4-1-1V17C2.2,16.5,2.7,16,3.2,16z"/>
	<path class="st0" d="M0,13.3c0-0.7,0.5-1.2,1.2-1.2h24.7c0.7,0,1.2,0.5,1.2,1.2l0,0c0,0.7-0.5,1.2-1.2,1.2H1.2
		C0.5,14.5,0,14,0,13.3"/>
	<path class="st1" d="M7,23.6h12.7v0.6c0,1.5-1.2,2.7-2.7,2.7H9.7c-1.5,0-2.7-1.2-2.7-2.7L7,23.6L7,23.6L7,23.6z"/>
	<rect x="11.7" y="26.1" class="st1" width="3.3" height="2"/>
</g>
</svg>
