<?xml version="1.0" encoding="UTF-8"?>
<svg id="Layer_2" data-name="Layer 2" xmlns="http://www.w3.org/2000/svg" viewBox="0 0 36.87 37.41">
  <defs>
    <style>
      .cls-1 {
        fill: #e75a4f;
        stroke: #e75a4f;
        stroke-miterlimit: 10;
        stroke-width: .5px;
      }
    </style>
  </defs>
  <g id="Homepage">
    <g id="Main">
      <g id="Section_3" data-name="Section 3">
        <g>
          <path class="cls-1" d="m34.66,6.84h-1.82v-1.19c0-1.08-.88-1.96-1.96-1.96h-1.57v-1.48c0-1.08-.88-1.96-1.96-1.96H2.21C1.13.25.25,1.13.25,2.21v30.2c0,2.62,2.13,4.75,4.75,4.75h27.55c2.24,0,4.06-2.25,4.06-5.02V8.8c0-1.08-.88-1.96-1.96-1.96ZM5,36.34c-2.17,0-3.93-1.76-3.93-3.93V2.21c0-.63.51-1.14,1.14-1.14h25.15c.63,0,1.14.51,1.14,1.14v29.93c0,1.76.73,3.3,1.84,4.2H5Zm30.79-4.2c0,2.32-1.45,4.2-3.24,4.2s-3.24-1.89-3.24-4.2V4.51h1.57c.63,0,1.14.51,1.14,1.14v26.78c0,.23.18.41.41.41s.41-.18.41-.41V7.66h1.82c.63,0,1.14.51,1.14,1.14v23.34h0Z"/>
          <path class="cls-1" d="m14.6,25.33H4.89c-.64,0-1.16-.52-1.16-1.16v-9.83c0-.64.52-1.16,1.16-1.16h9.71c.64,0,1.16.52,1.16,1.16v9.83c0,.64-.52,1.16-1.16,1.16ZM4.89,14.01c-.18,0-.34.15-.34.34v9.83c0,.18.15.34.34.34h9.71c.18,0,.34-.15.34-.34v-9.83c0-.18-.15-.34-.34-.34H4.89Z"/>
          <path class="cls-1" d="m25.3,14.01h-6.32c-.23,0-.41-.18-.41-.41s.18-.41.41-.41h6.32c.23,0,.41.18.41.41s-.18.41-.41.41Z"/>
          <path class="cls-1" d="m25.3,17.78h-6.32c-.23,0-.41-.18-.41-.41s.18-.41.41-.41h6.32c.23,0,.41.18.41.41s-.18.41-.41.41Z"/>
          <path class="cls-1" d="m25.3,21.55h-6.32c-.23,0-.41-.18-.41-.41s.18-.41.41-.41h6.32c.23,0,.41.18.41.41s-.18.41-.41.41Z"/>
          <path class="cls-1" d="m25.3,25.33h-6.32c-.23,0-.41-.18-.41-.41s.18-.41.41-.41h6.32c.23,0,.41.18.41.41s-.18.41-.41.41Z"/>
          <path class="cls-1" d="m25.3,29.1H4.14c-.23,0-.41-.18-.41-.41s.18-.41.41-.41h21.16c.23,0,.41.18.41.41s-.18.41-.41.41Z"/>
          <path class="cls-1" d="m25.3,32.87H4.14c-.23,0-.41-.18-.41-.41s.18-.41.41-.41h21.16c.23,0,.41.18.41.41s-.18.41-.41.41Z"/>
          <path class="cls-1" d="m7.98,10.34c-.13,0-.25-.06-.33-.17l-3.1-4.17v3.93c0,.23-.18.41-.41.41s-.41-.18-.41-.41v-5.17c0-.18.11-.33.28-.39.17-.05.35,0,.46.14l3.1,4.17v-3.93c0-.23.18-.41.41-.41s.41.18.41.41v5.17c0,.18-.11.33-.28.39-.04.01-.09.02-.13.02Z"/>
          <path class="cls-1" d="m12.83,7.76c.23,0,.41-.18.41-.41s-.18-.41-.41-.41h-2.2v-1.76h2.2c.23,0,.41-.18.41-.41s-.18-.41-.41-.41h-2.61c-.23,0-.41.18-.41.41v5.17c0,.23.18.41.41.41h2.61c.23,0,.41-.18.41-.41s-.18-.41-.41-.41h-2.2v-1.76h2.2Z"/>
          <path class="cls-1" d="m15.96,10.34s-.01,0-.02,0c-.18,0-.34-.14-.38-.32l-1.21-5.17c-.05-.22.09-.44.31-.49.22-.05.44.09.49.31l.87,3.75,1.25-3.78c.06-.17.21-.28.39-.28h0c.18,0,.33.11.39.28l1.25,3.78.87-3.75c.05-.22.27-.36.49-.31.22.05.36.27.31.49l-1.21,5.17c-.04.18-.2.31-.38.32-.2,0-.35-.11-.41-.28l-1.31-3.99-1.31,3.99c-.06.17-.21.28-.39.28Z"/>
          <path class="cls-1" d="m24.01,10.34h-1.93c-.23,0-.41-.18-.41-.41s.18-.41.41-.41h1.93c.49,0,.88-.4.88-.88s-.4-.88-.88-.88h-.64c-.94,0-1.7-.76-1.7-1.7s.76-1.7,1.7-1.7h1.49c.23,0,.41.18.41.41s-.18.41-.41.41h-1.49c-.49,0-.88.4-.88.88s.4.88.88.88h.64c.94,0,1.7.76,1.7,1.7s-.76,1.7-1.7,1.7Z"/>
        </g>
      </g>
    </g>
  </g>
</svg>