<?xml version="1.0" encoding="utf-8"?>
<!-- Generator: Adobe Illustrator 27.7.0, SVG Export Plug-In . SVG Version: 6.00 Build 0)  -->
<svg version="1.1" id="Layer_2_00000163778540716094971650000009044781996793003451_"
	 xmlns="http://www.w3.org/2000/svg" xmlns:xlink="http://www.w3.org/1999/xlink" x="0px" y="0px" viewBox="0 0 36.9 37.4"
	 style="enable-background:new 0 0 36.9 37.4;" xml:space="preserve">
<style type="text/css">
	.st0{fill:#892115;stroke:#892115;stroke-width:0.5;stroke-miterlimit:10;}
</style>
<g id="Homepage">
	<g id="Main">
		<g id="Section_3">
			<g>
				<path class="st0" d="M34.7,6.8h-1.8V5.7c0-1.1-0.9-2-2-2h-1.6V2.2c0-1.1-0.9-2-2-2H2.2c-1.1,0-2,0.9-2,2v30.2
					c0,2.6,2.1,4.8,4.8,4.8h27.5c2.2,0,4.1-2.2,4.1-5V8.8C36.6,7.7,35.7,6.8,34.7,6.8L34.7,6.8z M5,36.3c-2.2,0-3.9-1.8-3.9-3.9V2.2
					c0-0.6,0.5-1.1,1.1-1.1h25.2c0.6,0,1.1,0.5,1.1,1.1v29.9c0,1.8,0.7,3.3,1.8,4.2H5z M35.8,32.1c0,2.3-1.5,4.2-3.2,4.2
					s-3.2-1.9-3.2-4.2V4.5h1.6C31.5,4.5,32,5,32,5.7v26.8c0,0.2,0.2,0.4,0.4,0.4s0.4-0.2,0.4-0.4V7.7h1.8c0.6,0,1.1,0.5,1.1,1.1
					L35.8,32.1L35.8,32.1L35.8,32.1z"/>
				<path class="st0" d="M14.6,25.3H4.9c-0.6,0-1.2-0.5-1.2-1.2v-9.8c0-0.6,0.5-1.2,1.2-1.2h9.7c0.6,0,1.2,0.5,1.2,1.2v9.8
					C15.8,24.8,15.2,25.3,14.6,25.3z M4.9,14c-0.2,0-0.3,0.1-0.3,0.3v9.8c0,0.2,0.2,0.3,0.3,0.3h9.7c0.2,0,0.3-0.1,0.3-0.3v-9.8
					c0-0.2-0.1-0.3-0.3-0.3H4.9z"/>
				<path class="st0" d="M25.3,14H19c-0.2,0-0.4-0.2-0.4-0.4s0.2-0.4,0.4-0.4h6.3c0.2,0,0.4,0.2,0.4,0.4S25.5,14,25.3,14z"/>
				<path class="st0" d="M25.3,17.8H19c-0.2,0-0.4-0.2-0.4-0.4S18.8,17,19,17h6.3c0.2,0,0.4,0.2,0.4,0.4S25.5,17.8,25.3,17.8z"/>
				<path class="st0" d="M25.3,21.5H19c-0.2,0-0.4-0.2-0.4-0.4s0.2-0.4,0.4-0.4h6.3c0.2,0,0.4,0.2,0.4,0.4S25.5,21.5,25.3,21.5z"/>
				<path class="st0" d="M25.3,25.3H19c-0.2,0-0.4-0.2-0.4-0.4s0.2-0.4,0.4-0.4h6.3c0.2,0,0.4,0.2,0.4,0.4S25.5,25.3,25.3,25.3z"/>
				<path class="st0" d="M25.3,29.1H4.1c-0.2,0-0.4-0.2-0.4-0.4s0.2-0.4,0.4-0.4h21.2c0.2,0,0.4,0.2,0.4,0.4S25.5,29.1,25.3,29.1z"
					/>
				<path class="st0" d="M25.3,32.9H4.1c-0.2,0-0.4-0.2-0.4-0.4S3.9,32,4.1,32h21.2c0.2,0,0.4,0.2,0.4,0.4S25.5,32.9,25.3,32.9z"/>
				<path class="st0" d="M8,10.3c-0.1,0-0.2-0.1-0.3-0.2L4.6,6v3.9c0,0.2-0.2,0.4-0.4,0.4s-0.4-0.2-0.4-0.4V4.8
					c0-0.2,0.1-0.3,0.3-0.4c0.2-0.1,0.3,0,0.5,0.1l3.1,4.2V4.8c0-0.2,0.2-0.4,0.4-0.4s0.4,0.2,0.4,0.4v5.2c0,0.2-0.1,0.3-0.3,0.4
					C8.1,10.3,8,10.3,8,10.3L8,10.3z"/>
				<path class="st0" d="M12.8,7.8c0.2,0,0.4-0.2,0.4-0.4s-0.2-0.4-0.4-0.4h-2.2V5.2h2.2c0.2,0,0.4-0.2,0.4-0.4s-0.2-0.4-0.4-0.4
					h-2.6c-0.2,0-0.4,0.2-0.4,0.4v5.2c0,0.2,0.2,0.4,0.4,0.4h2.6c0.2,0,0.4-0.2,0.4-0.4s-0.2-0.4-0.4-0.4h-2.2V7.8L12.8,7.8
					L12.8,7.8z"/>
				<path class="st0" d="M16,10.3C16,10.3,15.9,10.3,16,10.3c-0.2,0-0.4-0.1-0.4-0.3l-1.2-5.2c-0.1-0.2,0.1-0.4,0.3-0.5
					c0.2-0.1,0.4,0.1,0.5,0.3L16,8.4l1.2-3.8c0.1-0.2,0.2-0.3,0.4-0.3l0,0c0.2,0,0.3,0.1,0.4,0.3l1.2,3.8l0.9-3.8
					c0-0.2,0.3-0.4,0.5-0.3S21,4.6,21,4.9L19.8,10c0,0.2-0.2,0.3-0.4,0.3c-0.2,0-0.4-0.1-0.4-0.3l-1.3-4l-1.3,4
					C16.3,10.2,16.1,10.3,16,10.3z"/>
				<path class="st0" d="M24,10.3h-1.9c-0.2,0-0.4-0.2-0.4-0.4s0.2-0.4,0.4-0.4H24c0.5,0,0.9-0.4,0.9-0.9S24.5,7.8,24,7.8h-0.6
					c-0.9,0-1.7-0.8-1.7-1.7s0.8-1.7,1.7-1.7h1.5c0.2,0,0.4,0.2,0.4,0.4s-0.2,0.4-0.4,0.4h-1.5c-0.5,0-0.9,0.4-0.9,0.9
					s0.4,0.9,0.9,0.9H24c0.9,0,1.7,0.8,1.7,1.7S25,10.3,24,10.3z"/>
			</g>
		</g>
	</g>
</g>
</svg>
